<svg width="100" height="100" viewBox="0 0 100 100" fill="none" xmlns="http://www.w3.org/2000/svg">
<g clip-path="url(#clip0)">
<path d="M72.7208 100C72.0209 100 71.3042 99.9125 70.5959 99.725L6.16668 82.4708C1.75001 81.2542 -0.883321 76.6792 0.275013 72.2625L8.40418 41.9625C8.70418 40.85 9.84585 40.2042 10.9542 40.4875C12.0667 40.7833 12.725 41.9292 12.4292 43.0375L4.30418 73.3292C3.72501 75.5375 5.05001 77.8375 7.26251 78.45L71.6667 95.6958C73.8792 96.2792 76.1625 94.9625 76.7375 92.7625L79.9917 80.7042C80.2917 79.5917 81.4334 78.9292 82.5459 79.2333C83.6584 79.5333 84.3125 80.6792 84.0167 81.7875L80.7667 93.8292C79.7875 97.5375 76.4125 100 72.7208 100Z" fill="#DDE3EA"/>
<path d="M91.6667 75H25C20.4042 75 16.6667 71.2625 16.6667 66.6667V16.6667C16.6667 12.0708 20.4042 8.33333 25 8.33333H91.6667C96.2625 8.33333 100 12.0708 100 16.6667V66.6667C100 71.2625 96.2625 75 91.6667 75ZM25 12.5C22.7042 12.5 20.8333 14.3708 20.8333 16.6667V66.6667C20.8333 68.9625 22.7042 70.8333 25 70.8333H91.6667C93.9625 70.8333 95.8334 68.9625 95.8334 66.6667V16.6667C95.8334 14.3708 93.9625 12.5 91.6667 12.5H25Z" fill="#DDE3EA"/>
<path d="M37.5 37.5C32.9042 37.5 29.1667 33.7625 29.1667 29.1667C29.1667 24.5708 32.9042 20.8333 37.5 20.8333C42.0958 20.8333 45.8333 24.5708 45.8333 29.1667C45.8333 33.7625 42.0958 37.5 37.5 37.5ZM37.5 25C35.2042 25 33.3333 26.8708 33.3333 29.1667C33.3333 31.4625 35.2042 33.3333 37.5 33.3333C39.7958 33.3333 41.6667 31.4625 41.6667 29.1667C41.6667 26.8708 39.7958 25 37.5 25Z" fill="#DDE3EA"/>
<path d="M19.0417 70.5417C18.5083 70.5417 17.975 70.3375 17.5667 69.9333C16.7542 69.1208 16.7542 67.8 17.5667 66.9875L37.2458 47.3083C39.6042 44.95 43.725 44.95 46.0833 47.3083L51.9417 53.1667L68.1583 33.7083C69.3375 32.2958 71.0708 31.475 72.9167 31.4583H72.9625C74.7875 31.4583 76.5167 32.25 77.7083 33.6375L99.5 59.0625C100.25 59.9333 100.15 61.25 99.275 62C98.4042 62.75 97.0917 62.6542 96.3375 61.775L74.5458 36.35C74.1417 35.8833 73.5833 35.625 72.9625 35.625C72.5292 35.5875 71.7667 35.8875 71.3625 36.375L53.6833 57.5875C53.3083 58.0375 52.7625 58.3083 52.175 58.3333C51.5833 58.375 51.0208 58.1417 50.6083 57.725L43.1375 50.2542C42.35 49.4708 40.9792 49.4708 40.1917 50.2542L20.5125 69.9333C20.1083 70.3375 19.575 70.5417 19.0417 70.5417Z" fill="#DDE3EA"/>
</g>
<defs>
<clipPath id="clip0">
<rect width="100" height="100" fill="white"/>
</clipPath>
</defs>
</svg>
